solid OpenSCAD_Model
  facet normal -0 0 1
    outer loop
      vertex 0 10 10
      vertex 91.8 0 10
      vertex 91.8 10 10
    endloop
  endfacet
  facet normal 0 0 1
    outer loop
      vertex 91.8 0 10
      vertex 0 10 10
      vertex 0 0 10
    endloop
  endfacet
  facet normal 0 0 -1
    outer loop
      vertex 0 0 0
      vertex 91.8 10 0
      vertex 91.8 0 0
    endloop
  endfacet
  facet normal -0 0 -1
    outer loop
      vertex 91.8 10 0
      vertex 0 0 0
      vertex 0 10 0
    endloop
  endfacet
  facet normal 0 -1 0
    outer loop
      vertex 0 0 0
      vertex 91.8 0 10
      vertex 0 0 10
    endloop
  endfacet
  facet normal 0 -1 -0
    outer loop
      vertex 91.8 0 10
      vertex 0 0 0
      vertex 91.8 0 0
    endloop
  endfacet
  facet normal 1 -0 0
    outer loop
      vertex 91.8 0 10
      vertex 91.8 10 0
      vertex 91.8 10 10
    endloop
  endfacet
  facet normal 1 0 0
    outer loop
      vertex 91.8 10 0
      vertex 91.8 0 10
      vertex 91.8 0 0
    endloop
  endfacet
  facet normal 0 1 -0
    outer loop
      vertex 91.8 10 0
      vertex 0 10 10
      vertex 91.8 10 10
    endloop
  endfacet
  facet normal 0 1 0
    outer loop
      vertex 0 10 10
      vertex 91.8 10 0
      vertex 0 10 0
    endloop
  endfacet
  facet normal -1 0 0
    outer loop
      vertex 0 0 0
      vertex 0 10 10
      vertex 0 10 0
    endloop
  endfacet
  facet normal -1 -0 0
    outer loop
      vertex 0 10 10
      vertex 0 0 0
      vertex 0 0 10
    endloop
  endfacet
endsolid OpenSCAD_Model
